<?xml version="1.0" encoding="UTF-8" standalone="no"?>
<!-- Generator: Adobe Illustrator 23.0.2, SVG Export Plug-In . SVG Version: 6.00 Build 0)  -->
<svg id="Слой_1" style="enable-background:new 0 0 593 564" xmlns="http://www.w3.org/2000/svg" xml:space="preserve" height="564px" viewBox="0 0 593 564" width="593px" version="1.1" y="0px" x="0px" xmlns:xlink="http://www.w3.org/1999/xlink">
<style type="text/css">
	.st0{fill:#404C75;}
</style>
<path class="st0" d="m168.1 241.6c14.2-1.9 28.4 3 38.5 13.1l25.5 25.5 24.1-24-34.8-34.7c-5.4-5.4-5.4-14.2 0-19.6s14.2-5.4 19.6 0l34.8 34.8 24.1-24-25.6-25.6c-10.1-10.1-15-24.4-13.1-38.5 4.2-32.3-6-66-30.8-90.8-25.3-25.3-59.8-35.4-92.6-30.6-5.2 0.7-7.3 7.2-3.6 10.9l32.8 32.8c15.6 15.6 15.6 40.8 0 56.3l-20.2 20.2c-15.6 15.6-40.8 15.6-56.3 0l-32.9-32.8c-3.7-3.7-10.1-1.6-10.9 3.6-4.9 32.8 5.3 67.4 30.6 92.6 24.8 24.8 58.6 35.1 90.8 30.8z"/>
<path class="st0" d="m372 284.8l-24.1 24 143 143c5.4 5.4 5.4 14.2 0 19.6s-14.2 5.4-19.6 0l-143-143-24.1 24 147.4 147.4c18.7 18.7 48.9 18.6 67.6-0.1s18.7-48.9 0.1-67.6l-147.3-147.3z"/>
<path class="st0" d="m427.3 189.3h63.6l63.6-127-31.7-31.7-127.2 63.4v63.6l-172.7 172.2-31.1-31-125.2 125.2c-26.1 26.1-26.1 68.3 0 94.4s68.3 26.1 94.4 0l125.2-125.2-31.7-31.7 172.8-172.2z"/>
</svg>
