<svg width="512px" xmlns="http://www.w3.org/2000/svg" fill="#444444" viewBox="0 0 487.238 487.238" height="512px">
 <path d="m304.4 317.3c-42.8-16.3-68.4-33-68.4-33l-32.9 104.2-4.5 14.1-14.8-41.8c33.9-47.3-2.6-49.5-8.9-49.6h-0.4c-6.3 0-42.8 2.3-8.9 49.6l-14.7 41.8-4.5-14.1-32.9-104.2s-25.6 16.7-68.4 33c-47.1 17.1-44.2 55.9-45.1 128.5h349.6c-1-72.6 1.9-111.4-45.2-128.5z"/>
 <path d="m100.7 218.1c3.8 24.5 22.6 55.6 53.7 66.6 12.7 4.5 26.7 4.5 39.4-0.1 30.6-11 50.1-42 53.8-66.5 4.1-0.3 9.5-6.1 15.3-26.7 8-28.2-0.5-32.3-7.7-31.6 1.4-3.9 2.4-7.7 3.1-11.6 12.2-72.9-23.7-75.4-23.7-75.4s-5.9-11.4-21.6-20.1c-10.5-6.2-25.1-11.1-44.4-9.4-6.2 0.3-12.1 1.5-17.7 3.4-7.1 2.4-13.6 5.9-19.5 10-7.2 4.6-14 10.2-20 16.6-9.5 9.7-18 22.3-21.7 38-3.1 11.7-2.4 23.9 0.2 37.1 0.7 3.8 1.7 7.7 3.1 11.6-7.2-0.7-15.6 3.5-7.7 31.6 5.8 20.4 11.2 26.2 15.4 26.5z"/>
 <path d="m460.7 67.9c-35.4-35.4-92.8-35.4-128.2 0-34.1 34.1-35.4 88.6-3.8 124.2l0.9 0.8c-3.4 7.4-9.3 16.5-18.7 21.1-3.1 1.5-2.4 6.1 1 6.6 10.2 1.6 24.9-0.2 38.5-10.5l0.2 0.2c34.8 20.4 80.2 15.7 110-14.1 35.5-35.4 35.5-92.8 0.1-128.3zm-103.2 75.9c-6.5 0-11.8-5.3-11.8-11.8s5.3-11.8 11.8-11.8 11.8 5.3 11.8 11.8c0 6.6-5.3 11.8-11.8 11.8zm39.1 0c-6.5 0-11.8-5.3-11.8-11.8s5.3-11.8 11.8-11.8 11.8 5.3 11.8 11.8c-0.1 6.6-5.3 11.8-11.8 11.8zm39 0c-6.5 0-11.8-5.3-11.8-11.8s5.3-11.8 11.8-11.8 11.8 5.3 11.8 11.8c0 6.6-5.3 11.8-11.8 11.8z"/>
</svg>
