<?xml version="1.0" encoding="UTF-8" standalone="no"?>
<svg width="300px" xmlns="http://www.w3.org/2000/svg" fill="#3CB54A" viewBox="0 0 49094 64779" height="396px">
 <path d="m24626 57251l-2950-1756c-4026-2603-11303-6394-13826-10329-1389-2167-1576-4648-1576-8149v-21959c4883 0 11418-2505 15404-4987 352-220 592-397 940-629 686-457 1296-909 2008-1286l909 659c351 233 592 394 942 627 4366 2913 11066 5616 16343 5616v21645c0 3364-124 6064-1399 8168-1103 1819-3140 3618-4906 4820l-11889 7560zm-23371-48310h-1255v31683c0 3549 1590 6932 3135 8943 1680 2184 2624 2888 4599 4498 2082 1695 6857 4614 9272 6100l7620 4614 1791-1188c3387-2084 10342-6127 13133-8199 597-443 1148-796 1723-1257 1901-1520 3026-2447 4618-4479 1601-2045 3203-5472 3203-9032v-31683c-8272 0-13132-880-19889-5365-771-511-4194-3001-4579-3576-754 505-1471 1174-2194 1727-759 580-1553 1193-2355 1724-825 547-1614 1084-2510 1568-5559 3007-9570 3922-16312 3922z"/>
 <path d="m21370 34546l-5647-5566-4153 4235 9723 9801 17175-17097c-315-458-3649-3950-4275-4117l-12823 12744z"/>
</svg>
