<?xml version="1.0" encoding="UTF-8" standalone="no"?>
<!-- Generator: Adobe Illustrator 23.0.2, SVG Export Plug-In . SVG Version: 6.00 Build 0)  -->
<svg id="Layer_1" style="enable-background:new 0 0 2366.1 595.3" xmlns="http://www.w3.org/2000/svg" xml:space="preserve" height="595.3px" viewBox="0 0 2366.1 595.3" width="2366.1px" version="1.1" y="0px" x="0px" xmlns:xlink="http://www.w3.org/1999/xlink">
<style type="text/css">
	.st0{display:none;fill-rule:evenodd;clip-rule:evenodd;fill:#00336F;}
	.st1{fill-rule:evenodd;clip-rule:evenodd;fill:#F9B41D;}
	.st2{fill-rule:evenodd;clip-rule:evenodd;fill:#E20025;}
	.st3{fill-rule:evenodd;clip-rule:evenodd;fill:#00336F;}
	.st4{fill-rule:evenodd;clip-rule:evenodd;fill:#FFFFFF;}
	.st5{fill-rule:evenodd;clip-rule:evenodd;fill:#0E4595;}
	.st6{fill-rule:evenodd;clip-rule:evenodd;fill:#F2AE14;}
	.st7{fill:#5AB206;}
	.st8{fill:#1D1D1D;}
</style>
<polygon points="1701.1 558.8 1701.1 43.5 861.9 43.6 861.9 558.8" class="st0"/>
	<path class="st1" d="m1335.5 491c46.7 41.4 108.8 66.5 176.7 66.5 145.4 0 263.3-115 263.3-257s-117.9-257-263.3-257c-68.1 0-130 25.1-176.7 66.5-53.1 47-86.5 114.9-86.5 190.5 0 75.4 33.4 143.4 86.5 190.5z"/>
	<path class="st2" d="m1420.6 273.2c-1-9.3-2.5-18.3-4.5-27.2h-161.3c2.1-9.3 4.6-18.4 7.6-27.2h145.9c-3.1-9.3-6.9-18.4-11.1-27.2h-123.6c4.5-9.4 9.6-18.4 15.2-27.2h93.2c-6.2-9.5-12.8-18.5-20-27.2h-53c8.1-9.7 17-18.8 26.6-27.2-46.7-41.4-108.8-66.5-176.7-66.5-145.4 0-263.3 115-263.3 257s117.9 257 263.3 257c68.1 0 130-25.1 176.7-66.5 9.6-8.4 18.5-17.5 26.6-27.2h-53.2c-7.2-8.6-13.9-17.7-20-27.2h93.2c5.6-8.8 10.7-17.8 15.2-27.2h-123.6c-4.2-8.8-8-17.9-11.3-27.2h145.9c3-8.9 5.6-17.9 7.6-27.2 2-8.9 3.4-18 4.5-27.2 0.9-9 1.4-18 1.4-27.2 0.3-9.4-0.2-18.4-1.3-27.4z"/>
	<path class="st3" d="m1246 374.7c-8.8 2.4-14.9 3.4-21.5 3.4-13.4 0-21.6-8.3-21.6-23.2 0-2.9 0.3-6.1 0.9-9.5l1.7-10.4 1.3-8.4 12.4-72.4h27.5l-3.3 15.7h17.1l-4.1 26.8h-17.3l-7.5 43.3c-0.4 1.9-0.5 3.4-0.5 4.4 0 5.5 3 7.9 9.7 7.9 3.3 0 5.8-0.4 8.8-1l-3.6 23.4z"/>
	<path class="st3" d="m1334.4 373.6c-9.8 2.9-19.2 4.3-29.3 4.3-30.6 0-48.6-16.3-48.6-47.5 0-36.4 21.2-63.2 49.9-63.2 23.6 0 38.5 15 38.5 38.6 0 7.7-1 15.4-3.5 26.2h-56.8c-0.3 1.7-0.3 2.4-0.3 3.3 0 12.3 8.5 18.5 25.1 18.5 10.2 0 19.4-2 29.7-6.7l-4.7 26.5zm-17.1-62.9c0.1-2.2 0.3-4.1 0.3-5.5 0-8.6-5-13.7-13.5-13.7-9 0-15.6 6.7-18.2 19l31.4 0.2z"/>
	<polygon points="1027.9 375.9 999.3 375.9 1015.6 275.7 979.1 375.9 959.6 375.9 957.3 276.4 940 375.9 912.2 375.9 934.6 245.7 975.7 245.7 976.9 326.3 1004.6 245.7 1049.8 245.7" class="st3"/>
	<path class="st3" d="m1096.5 328.7c-3-0.4-3.5-0.4-5.6-0.4-16.2 0-24.3 6.1-24.3 16.1 0 6.6 4.1 10.8 10.2 10.8 13.8 0 19.2-10.8 19.7-26.5zm22.7 47.2h-24.7l0.5-11c-6.3 8.3-14.8 12.8-30 12.8-13.9 0-25.4-11.8-25.4-29 0-5.1 0.9-9.7 2.1-13.8 4.5-16.3 21.3-26.7 47.4-27 3.3 0 8.4-0.1 12.6 0.4 0.9-3.4 1.2-5 1.2-6.9 0-7-5.9-9.3-19.2-9.3-8.1 0-17.3 1.4-23.7 3.2l-3.9 1.1-1.7 0.4 3.9-23.9c13.4-3.9 22.6-5.6 33.2-5.6 24.6 0 37.6 10.8 37.6 31.1 0 5.2 0.5 9.3-1.3 21l-6 37.6-1 6.7-0.8 5.3-0.5 3.7-0.3 3.2z"/>
	<path class="st3" d="m1471.8 270.9c8 0 15.3 2 25.5 7l4.7-28.3c-2.5-1-3.3-1.3-6.9-2.5l-11.8-2.9c-3.7-0.9-7.9-1.4-12.8-1.4-14.1 0-22.5 0.1-31 5.3-4.6 2.8-10.3 6.7-17 14l-3.4-1-29.1 20.2 1.4-11.3h-30.4l-17.4 106h28.5l10.5-57s4.1-7.7 5.9-10.3c5.2-6.9 9.9-7 15.8-6.7h2.1c-0.9 6.2-1.3 13-1.3 20.2 0 34.7 20.2 56.3 50.9 56.3 8 0 14.7-1 25.3-3.8l5-29.7c-9.4 4.6-17.3 6.7-24.3 6.7-16.6 0-26.7-11.9-26.7-31.7 0.2-28.9 15.2-49.1 36.5-49.1z"/>
	<path class="st3" d="m1713.3 245.7l-6.3 37.2c-6.9-10-15.1-14.9-26.2-14.9-15.1 0-28.8 8.4-37.6 24l0.1-0.1-18.2-10.5 1.4-11.3h-30.2l-17.4 106h28.5l9.4-57s7.3-8 9.2-10.4c4.2-5.3 8.9-6.5 12.7-6.7-3.3 9-5.2 19.6-5.2 31.5 0 26.5 14.1 44.1 34.9 44.1 10.5 0 18.6-3.6 26.4-11.8l-1.4 10.4h27.1l21.7-130.4h-28.9v-0.1zm-34.8 105.3c-9.7 0-14.7-7-14.7-21 0-20.8 9.2-35.7 22.1-35.7 9.8 0 15.2 7.4 15.2 20.8 0.1 21.2-9.3 35.9-22.6 35.9z"/>
	<path class="st3" d="m1546.9 328.7c-3-0.4-3.5-0.4-5.6-0.4-16.2 0-24.3 6.1-24.3 16.1 0 6.6 4.1 10.8 10.2 10.8 13.7 0 19.2-10.8 19.7-26.5zm22.5 47.2h-24.7l0.5-11c-6.3 8.3-14.8 12.8-30 12.8-13.9 0-26.4-11.6-26.3-29.1 0.1-25.1 19.5-40.8 50.3-40.8 3.3 0 8.4-0.1 12.6 0.4 0.9-3.4 1.2-5 1.2-6.9 0-7-5.9-9.3-19.2-9.3-8.1 0-17.3 1.4-23.7 3.2l-3.9 1.1-1.7 0.4 3.9-23.9c13.4-3.9 22.6-5.6 33.2-5.6 24.6 0 37.6 10.8 37.6 31.1 0 5.2 0.5 9.3-1.3 21l-6 37.6-1 6.7-0.8 5.3-0.5 3.7v3.3h-0.2z"/>
	<path class="st3" d="m1178.7 292.6c5.6 0 13.2 0.5 21.5 1.7l4.1-24.5c-8.4-1.3-19-2.2-25.5-2.2-31.9 0-42.4 16.6-42.4 36.2 0 12.6 6.3 22.1 21.3 29 11.5 5.3 13.6 6.2 13.6 11 0 6.6-5.9 10.4-17.1 10.4-8.5 0-16.5-1.3-25.5-4.2l-3.3 24.4 0.7 0.1 5.2 1c1.7 0.4 4.2 0.8 7.5 1 6.8 0.6 12.6 1 16.2 1 31.7 0 44.9-11.9 44.9-35.4 0-14.6-7.1-23.1-21.5-29.5-11.9-5.3-13.4-6.1-13.4-11-0.1-4.8 5-9 13.7-9z"/>
	<path class="st4" d="m1509.7 241.5l-4.7 28.3c-10.2-5.1-17.7-7-25.5-7-21.3 0-36.3 20.2-36.3 48.9 0 19.8 10.1 31.7 26.7 31.7 7.1 0 14.8-2.2 24.3-6.7l-5 29.7c-10.5 2.8-17.3 3.8-25.3 3.8-30.8 0-50-21.6-50-56.3 0-46.6 26.4-79.2 64.4-79.2 4.8 0 9.2 0.5 12.8 1.4l11.8 2.9c3.6 1.2 4.4 1.4 6.8 2.5z"/>
	<path class="st4" d="m1418 260.9c-0.9-0.1-1.8-0.3-2.9-0.3-9.4 0-14.7 4.7-23.4 17.3l2.5-16.1h-25.9l-17.4 106h28.5c10.2-64.9 13-76.1 26.7-76.1 0.9 0 0.9 0 2.1 0.1 2.5-12.8 6-22.2 10.9-30.7l-1.1-0.2z"/>
	<path class="st4" d="m1253.3 366.5c-7.9 2.4-13.9 3.4-20.5 3.4-14.7 0-22.6-8.1-22.6-23.2 0-2.9 0.3-6.1 0.9-9.5l1.7-10.4 1.3-8.4 12.4-72.4h28.4l-3.3 15.7h14.5l-3.9 25.8h-14.7l-7.6 44.2c-0.4 1.9-0.5 3.4-0.5 4.4 0 5.5 3 7.9 9.7 7.9 3.3 0 5.8-0.4 7.7-1l-3.5 23.5z"/>
	<path class="st4" d="m1143.5 295.3c0 13.5 6.7 22.6 21.7 29.6 11.5 5.3 13.4 6.9 13.4 11.7 0 6.6-5.1 9.5-16.4 9.5-8.5 0-16.5-1.3-25.5-4.2l-3.9 24.5 1.3 0.3 5.2 1c1.7 0.4 4.2 0.6 7.5 0.9 6.8 0.6 12 0.9 15.7 0.9 30.1 0 44-11.2 44-35.4 0-14.6-5.8-23.1-20.2-29.5-11.9-5.3-13.4-6.6-13.4-11.6 0-5.7 4.7-8.6 14-8.6 5.6 0 13.2 0.6 20.5 1.7l4.1-24.5c-7.3-1.1-18.6-2-25.1-2-31.9-0.2-43 16.1-42.9 35.7z"/>
	<path class="st4" d="m1727.9 367.8h-27.1l1.4-10.4c-7.9 8.1-16 11.8-26.4 11.8-20.8 0-34.6-17.5-34.6-44.1 0-35.3 21.3-65 46.5-65 11.1 0 19.5 4.4 27.4 14.5l6.3-37.2h28.1l-21.6 130.4zm-42.1-25c13.4 0 22.6-14.7 22.6-35.8 0-13.5-5.4-20.8-15.2-20.8-13 0-22.3 14.7-22.3 35.7 0.2 13.9 5.2 20.9 14.9 20.9z"/>
	<path class="st4" d="m1340.6 365.5c-9.8 2.9-19.2 4.3-29.3 4.3-31.9 0-48.6-16.3-48.6-47.5 0-36.4 21.2-63.2 49.9-63.2 23.6 0 38.5 15 38.5 38.5 0 7.9-1 15.5-3.5 26.2h-56.8c-0.3 1.7-0.3 2.4-0.3 3.3 0 12.3 8.5 18.5 25.1 18.5 10.2 0 19.4-2 29.7-6.7l-4.7 26.6zm-16.1-63.1c0.1-2.2 0.3-4.1 0.3-5.5 0-8.6-5-13.7-13.5-13.7-9 0-15.6 6.7-18.2 19l31.4 0.2z"/>
	<polygon points="1035.1 367.8 1006.6 367.8 1023 267.6 986.5 367.8 967 367.8 964.5 268.1 947.3 367.8 920.5 367.8 942.9 237.4 984 237.4 985.1 318.2 1012.9 237.4 1057.3 237.4" class="st4"/>
	<path class="st4" d="m1105.6 320.6c-3-0.4-4.3-0.4-6.4-0.4-16.2 0-24.3 5.5-24.3 16.1 0 6.6 4.1 10.8 10.2 10.8 11.6 0 19.9-10.9 20.5-26.5zm20.8 47.2h-23.7l0.5-11c-7.2 8.6-16.9 12.8-30 12.8-15.4 0-26-11.8-26-29 0-25.8 18.5-40.9 50.1-40.9 3.3 0 7.5 0.3 11.6 0.9 0.9-3.6 1.2-5 1.2-6.9 0-7-5-9.7-18.3-9.7-8.1 0-17.4 1.1-23.7 2.9l-3.9 1.1-2.6 0.6 3.9-23.9c14.3-4.1 23.7-5.6 34.2-5.6 24.6 0 37.6 10.8 37.6 31.1 0 5.2-0.4 9.3-2.4 21l-6 37.6-1 6.7-0.8 5.3-0.5 3.7-0.2 3.3z"/>
	<path class="st4" d="m1555.8 320.6c-3-0.4-4.3-0.4-6.4-0.4-16.2 0-24.3 5.5-24.3 16.1 0 6.6 4.1 10.8 10.2 10.8 11.6 0 20.1-10.9 20.5-26.5zm20.8 47.2h-23.7l0.5-11c-7.2 8.6-16.9 12.8-30 12.8-15.4 0-26-11.8-26-29 0-25.8 18.5-40.9 50.1-40.9 3.3 0 7.3 0.3 11.6 0.9 0.9-3.6 1.2-5 1.2-6.9 0-7-5-9.7-18.3-9.7-8.1 0-17.4 1.1-23.7 2.9l-3.9 1.1-2.6 0.6 3.9-23.9c14.3-4.1 23.7-5.6 34.2-5.6 24.6 0 37.6 10.8 37.6 31.1 0 5.2-0.4 9.3-2.4 21l-6 37.6-1 6.7-0.8 5.3-0.5 3.7-0.2 3.3z"/>
	<path class="st4" d="m1653.3 260.9c-0.9-0.1-1.8-0.3-2.9-0.3-9.4 0-14.7 4.7-23.4 17.3l2.5-16.1h-25.9l-17.4 106h28.5c10.2-64.9 13-76.1 26.7-76.1 0.9 0 0.8 0 2 0.1 2.5-12.8 6-22.2 10.9-30.7l-1-0.2z"/>
	<path class="st5" d="m53.1 43.5h735.7c24.3 0 43.9 19.6 43.9 43.8v427.7c0 24.2-19.7 43.8-43.9 43.8h-735.7c-24.3 0-43.9-19.6-43.9-43.8v-427.7c0-24.2 19.7-43.8 43.9-43.8z"/>
	<path class="st4" d="m314.7 409.2l36.6-214.2h58.6l-36.7 214.2h-58.5z"/>
	<path class="st4" d="m584.9 199.6c-11.6-4.3-29.8-9-52.5-9-57.9 0-98.7 29-99 70.7-0.3 30.8 29.1 47.9 51.3 58.2 22.8 10.5 30.5 17.2 30.4 26.6-0.1 14.4-18.2 20.9-35.1 20.9-23.5 0-35.9-3.2-55.2-11.2l-7.5-3.4-8.2 47.9c13.7 6 39 11.2 65.3 11.4 61.6 0 101.6-28.7 102-73.2 0.2-24.4-15.4-42.9-49.2-58.2-20.5-9.9-33-16.5-32.9-26.6 0-8.9 10.6-18.4 33.6-18.4 19.2-0.3 33 3.9 43.9 8.2l5.2 2.5 7.9-46.4"/>
	<path class="st4" d="m735.7 195h-45.3c-14 0-24.5 3.8-30.7 17.8l-87 196.3h61.5s10.1-26.4 12.3-32.2c6.7 0 66.5 0.1 75 0.1 1.8 7.5 7.1 32.1 7.1 32.1h54.4l-47.3-214.1zm-71.9 138.3c4.8-12.3 23.3-59.9 23.3-59.9-0.3 0.6 4.8-12.4 7.8-20.4l4 18.5s11.2 51.1 13.6 61.8h-48.7z"/>
	<path class="st4" d="m264.9 195l-57.3 146-6.1-29.7c-10.7-34.2-43.9-71.3-81.1-89.8l52.4 187.3 62-0.1 92.2-213.7h-62.1"/>
	<path class="st6" d="m154 195h-94.4l-0.7 4.5c73.5 17.7 122.1 60.6 142.3 112l-20.5-98.4c-3.6-13.6-13.9-17.6-26.7-18.1"/>
<path id="svg_2" d="m1841.9 42.9c170.2 0 340.3-0.3 510.5 0.2 0.1 171.4 0.3 342.8-0.1 514.2-82.6 0.4-165.3 0.3-247.9 0 0.2-59.2 3-122.3-26.6-175.6-22.1-42.4-64.5-70.2-109.5-80.6-41.2-11-84.1-7.1-126.3-8-0.1-83.4 0.1-166.7-0.1-250.2z" class="st7"/>
<path id="svg_11" d="m1947.4 149.5c99.9-0.4 199.8-0.3 299.7 0 0.3 100.5 0.4 201 0 301.5-13.5 0-27 0-40.4-0.1-8.9-71.5-37.8-142.8-92.4-190.3-46.3-42.1-107.1-61.9-167.3-71.3-0.1-13.3 0-26.6 0.4-39.8z" class="st8"/>
<path id="svg_15" d="m1841.3 357c66.6 0 133.3-0.1 199.9 0v201c-66.7 0.1-133.3 0-199.9 0 0.1-66.9 0-133.9 0-201z"/>
</svg>
