<?xml version="1.0" encoding="UTF-8" standalone="no"?>
<svg width="1280pt" xmlns="http://www.w3.org/2000/svg" viewBox="0 0 1280.000000 1280.000000" height="1280pt">
 <g transform="translate(0 1280) scale(0.1 -0.1)" fill="#b1504a">
  <path d="m6095 12794c-1497-80-2871-647-3975-1640-868-782-1506-1782-1844-2894-126-418-208-837-253-1305-24-252-24-858 0-1110 90-933 342-1757 782-2550 573-1034 1456-1917 2490-2490 793-439 1617-692 2550-782 252-24 858-24 1110 0 739 71 1389 239 2041 528 1255 554 2332 1540 2999 2744 440 793 692 1617 782 2550 24 252 24 858 0 1110-90 933-342 1757-782 2550-573 1034-1456 1917-2490 2490-789 438-1629 695-2540 780-162 15-716 27-870 19zm790-1080c1456-133 2789-854 3698-2001 518-654 867-1399 1041-2223 78-369 109-674 109-1090s-31-721-109-1090c-261-1232-930-2315-1911-3093-820-649-1774-1030-2838-1133-232-23-718-23-950 0-1257 122-2373 638-3259 1505-912 894-1457 2043-1582 3336-23 232-23 718 0 950 125 1293 670 2442 1582 3336 945 926 2186 1464 3514 1523 148 6 539-5 705-20z"/>
  <path d="m10315 8138c-22-12-159-79-305-148-146-70-643-308-1105-530-1915-918-2108-1010-2122-1010-8 0-92 20-186 44-95 25-325 84-512 131s-445 113-572 146c-128 32-338 86-465 118-128 33-386 99-573 146s-416 106-510 130c-93 24-341 87-550 140s-474 121-588 150c-174 45-209 51-214 39-30-79-199-631-194-636 3-3 929-348 2056-765l2050-759 223-38 224-38 1869 1122c1028 618 1871 1126 1873 1129 4 7-346 651-354 651-3-1-23-10-45-22z"/>
 </g>
</svg>
