<?xml version="1.0" encoding="utf-8"?>
<!-- Generator: Adobe Illustrator 23.0.2, SVG Export Plug-In . SVG Version: 6.00 Build 0)  -->
<svg version="1.1" id="Слой_1" xmlns="http://www.w3.org/2000/svg" xmlns:xlink="http://www.w3.org/1999/xlink" x="0px" y="0px"
	 width="512px" height="512px" viewBox="0 0 512 512" style="enable-background:new 0 0 512 512;" xml:space="preserve">
<style type="text/css">
	.st0{fill:#3F81F7;}
	.st1{fill:#C8DAEA;}
	.st2{fill:#A9C9DD;}
	.st3{fill:#F6FBFE;}
</style>
<rect class="st0" width="512" height="512"/>
<path class="st1" d="M199,404c-11,0-10-4-13-14l-32-105l245-144"/>
<path class="st2" d="M199,404c7,0,11-4,16-8l45-43l-56-34"/>
<path class="st3" d="M204,319l135,99c14,9,26,4,30-14l55-258c5-22-9-32-24-25L79,245c-21,8-21,21-4,26l83,26l190-121c9-5,17-3,11,4"
	/>
</svg>
