<?xml version="1.0" encoding="utf-8"?>
<!-- Generator: Adobe Illustrator 23.0.2, SVG Export Plug-In . SVG Version: 6.00 Build 0)  -->
<svg version="1.1" id="Слой_1" xmlns="http://www.w3.org/2000/svg" xmlns:xlink="http://www.w3.org/1999/xlink" x="0px" y="0px"
	 width="512px" height="512px" viewBox="0 0 512 512" style="enable-background:new 0 0 512 512;" xml:space="preserve">
<style type="text/css">
	.st0{fill:#7B519D;}
	.st1{fill:#FFFFFF;}
</style>
<rect class="st0" width="512" height="512"/>
<g>
	<path class="st1" d="M399.9,332.3c-10.6-8.4-21.9-15.9-33-23.6c-22.2-15.3-42.5-16.5-59,8.1c-9.3,13.8-22.3,14.4-35.9,8.4
		c-37.5-16.7-66.5-42.5-83.5-80c-7.5-16.6-7.4-31.5,10.2-43.2c9.3-6.2,18.7-13.5,17.9-27.1c-1-17.7-44.6-76.8-61.9-83
		c-7.1-2.6-14.2-2.4-21.5,0C92.7,105.3,75.9,138,92,176.7c47.8,115.5,132,195.8,247.9,244.9c6.6,2.8,13.9,3.9,17.7,4.9
		c26.4,0.3,57.3-24.7,66.2-49.5C432.4,353.1,414.3,343.6,399.9,332.3L399.9,332.3z M269.9,103.8c84.7,12.8,123.8,52.4,134.6,136.3
		c1,7.7-1.9,19.4,9.3,19.6c11.8,0.2,8.9-11.3,9-19c1-79-69.1-152.3-150.5-155c-6.1,0.9-18.8-4.2-19.6,9.4
		C252.2,104.2,262.9,102.7,269.9,103.8z"/>
	<path class="st1" d="M286.5,126.8c-8.1-1-18.9-4.7-20.8,6.4c-2,11.7,10,10.5,17.7,12.2c52.3,11.5,70.6,30.2,79.2,81.3
		c1.3,7.4-1.2,19,11.6,17.1c9.5-1.4,6.1-11.4,6.9-17.2C381.5,177.5,338.8,133,286.5,126.8z"/>
	<path class="st1" d="M291.3,166.8c-5.4,0.1-10.8,0.7-12.8,6.4c-3,8.5,3.3,10.6,9.7,11.6c21.5,3.4,32.8,15.8,34.9,36.9
		c0.6,5.7,4.3,10.3,9.9,9.7c7.8-0.9,8.5-7.7,8.2-14.2C341.7,193.6,314.5,166.3,291.3,166.8L291.3,166.8z"/>
</g>
</svg>
