<?xml version="1.0" encoding="utf-8"?>
<!-- Generator: Adobe Illustrator 23.0.2, SVG Export Plug-In . SVG Version: 6.00 Build 0)  -->
<svg version="1.1" id="Слой_1" xmlns="http://www.w3.org/2000/svg" xmlns:xlink="http://www.w3.org/1999/xlink" x="0px" y="0px"
	 width="512px" height="512px" viewBox="0 0 512 512" style="enable-background:new 0 0 512 512;" xml:space="preserve">
<style type="text/css">
	.st0{fill:#1AA10F;}
	.st1{fill:#FFFFFF;}
</style>
<rect class="st0" width="512" height="512"/>
<g transform="translate(0.000000,512.000000) scale(0.100000,-0.100000)">
	<path class="st1" d="M2373.9,4381.6c-680.2-88.8-1252.2-551.3-1474.1-1191.3c-100.2-287.8-123.1-600.7-68-910
		c32.9-184.7,111-395.2,208.3-565.6l18.6-32.2l-161.8-474.7c-88.8-260.6-158.9-476.1-156.8-479c2.9-2.1,224.8,65.9,493.3,151.1
		c269.2,85.2,493.3,154.6,498.3,154.6s31.5-11.5,59.4-25.1c449.6-227,1011.6-252,1477-66.6c527.7,209.8,927.2,652.9,1074.6,1189.9
		c48,176.1,57.3,249.9,57.3,469.7c0,214.8-6.4,275.6-46.5,436.7c-178.3,716-786.8,1251.5-1525,1342.4
		C2719.7,4394.5,2476.2,4394.5,2373.9,4381.6z M2728.2,4098.8c242-22.2,458.2-93.1,660.8-216.9c110.3-67.3,184.7-126.7,281.4-222.7
		c243.4-242.7,390.2-542,431.7-877.8c17.9-138.9,6.4-363.7-25.1-501.2c-63.7-274.9-199-517.6-403.8-723.8
		c-123.1-123.1-249.9-214.1-411.7-295c-302.1-150.4-671.6-190.4-1013.1-108.8c-135.3,32.2-311.4,104.5-424.6,174
		c-26.5,16.5-50.1,30.1-53,30.1c-2.1,0-131-40.1-285.7-89.5s-282.1-89.5-284.2-89.5s38.7,123.9,89.5,274.2l93.1,274.9l-43,64.4
		c-169,257.7-253.4,557-242.7,860.6c9.3,267.8,75.9,495.4,209.8,716.7C1605.6,3861.1,2165.5,4148.9,2728.2,4098.8z"/>
	<path class="st1" d="M1946.4,3415.8c-32.2-11.5-59.4-33.6-105.2-86.6c-126.7-144.6-151.1-353.7-65.2-561.3
		c29.4-72.3,55.8-118.1,131-226.2c96.7-139.6,162.5-219.1,269.9-325.8c199.8-200.5,370.9-301.4,683.7-403.8
		c148.2-48,226.2-58,315-40.8c123.1,25.1,264.2,113.8,304.3,193.3c20,40.8,35.8,103.8,40.8,164c3.6,51.5,2.9,57.3-12.9,75.2
		c-18.6,20.8-342.2,178.3-395.9,192.6c-50.1,12.9-60.9,6.4-134.6-85.2c-87.3-108.8-106.7-128.9-128.9-134.6
		c-12.9-3.6-40.1,5-97.4,31.5c-224.1,102.4-380.2,236.3-519.1,443.2c-42.2,63.7-52.3,88.1-41.5,107.4c3.6,6.4,27.9,36.5,53.7,65.9
		c48,54.4,90.2,126,90.2,152.5c0,16.5-144.6,368.7-166.1,404.5c-7.9,12.9-20.8,26.5-28.6,30.8
		C2116.1,3425.1,1977.9,3427.9,1946.4,3415.8z"/>
</g>
</svg>
